<svg xmlns="http://www.w3.org/2000/svg" width="24" height="24" viewBox="0 0 24 24">
	<g fill="none">
		<path fill="#fcf2f3" d="M4.826 9.13h14.348A3.826 3.826 0 0 1 23 12.957v4.782a.957.957 0 0 1-.957.957H1.957A.956.956 0 0 1 1 17.739v-4.783A3.826 3.826 0 0 1 4.826 9.13" />
		<path fill="#e6d8d9" d="M22.88 12a3.826 3.826 0 0 0-3.706-2.87H4.827A3.826 3.826 0 0 0 1.12 12z" />
		<path fill="#ffef5e" d="M2.914 13.913h2.87L5.305 12H1.122a4 4 0 0 0-.117.78a2.15 2.15 0 0 0 1.91 1.133M18.696 12l-.478 1.913h2.87A2.16 2.16 0 0 0 23 12.778a4 4 0 0 0-.12-.778z" />
		<path fill="#66e1ff" d="m4.348 9.13l.69-4.14A1.91 1.91 0 0 1 6.93 3.392h10.146a1.91 1.91 0 0 1 1.886 1.599l.69 4.14z" />
		<path fill="#c2f3ff" d="M15.348 3.391H6.93a1.91 1.91 0 0 0-1.889 1.6l-.693 4.14h5.26z" />
		<path stroke="#191919" stroke-linecap="round" stroke-linejoin="round" d="M4.826 9.13h14.348A3.826 3.826 0 0 1 23 12.957v4.782a.957.957 0 0 1-.957.957H1.957A.956.956 0 0 1 1 17.739v-4.783A3.826 3.826 0 0 1 4.826 9.13m-.478 0l.69-4.14a1.91 1.91 0 0 1 1.886-1.6h10.15a1.91 1.91 0 0 1 1.887 1.599l.69 4.14" stroke-width="0.1" />
		<path fill="#fcf2f3" stroke="#191919" stroke-linecap="round" stroke-linejoin="round" d="m19.652 9.13l1.435-1.913h1.435a.48.48 0 0 1 .478.479v.956a.48.48 0 0 1-.478.478zm-15.304 0L2.913 7.217H1.478A.48.48 0 0 0 1 7.696v.956a.48.48 0 0 0 .478.478z" stroke-width="0.1" />
		<path fill="#808080" stroke="#191919" stroke-linecap="round" stroke-linejoin="round" d="M5.782 18.696v.956a.956.956 0 0 1-.956.957H2.913a.957.957 0 0 1-.957-.957v-.956zm16.262 0v.956a.956.956 0 0 1-.957.957h-1.913a.957.957 0 0 1-.956-.957v-.956z" stroke-width="0.1" />
		<path stroke="#191919" stroke-linecap="round" stroke-linejoin="round" d="M22.88 12h-4.184l-.478 1.913h2.87A2.16 2.16 0 0 0 23 12.78M1.12 12h4.184l.479 1.913h-2.87A2.15 2.15 0 0 1 1 12.78" stroke-width="0.1" />
		<path fill="#808080" stroke="#191919" stroke-linecap="round" stroke-linejoin="round" d="m18.218 13.913l-1.953.78a3 3 0 0 1-.923.177H8.174a2.4 2.4 0 0 1-.907-.215l-1.484-.742L5.305 12h13.391z" stroke-width="0.1" />
		<path fill="#b2b2b2" stroke="#191919" stroke-linecap="round" stroke-linejoin="round" d="m5.305 18.696l.956-1.913H17.74l.956 1.913z" stroke-width="0.1" />
		<path stroke="#191919" stroke-linecap="round" stroke-linejoin="round" d="M17.74 16.783h3.347m-18.174 0h3.348" stroke-width="0.1" />
	</g>
</svg>